<?xml version="1.0" encoding="UTF-8"?><svg xmlns="http://www.w3.org/2000/svg" viewBox="0 0 193 193"><defs><style>.e{fill:#fff;}.f{fill:#afc3e3;}.g{fill:none;stroke:#000;stroke-miterlimit:10;stroke-width:12px;}</style></defs><g id="a"><circle class="f" cx="96.5" cy="96.5" r="96.5"/></g><g id="c"><path class="e" d="M67.24,83.44c0-16.14,13.13-29.26,29.26-29.26s29.26,13.13,29.26,29.26-13.13,29.26-29.26,29.26-29.26-13.13-29.26-29.26ZM48.62,153.65h58.06l19.93,5.23,17.77-5.23v-26.67c0-10.79-5.59-18.53-19.27-22.59-6.46,8.8-16.88,14.53-28.61,14.53s-22.15-5.73-28.61-14.53c-13.68,4.05-19.27,11.79-19.27,22.59v26.67Z"/><path class="e" d="M60.51,76.43c-13.4-.79-24.06-11.91-24.06-25.5s11.47-25.58,25.58-25.58c13.08,0,23.89,9.88,25.38,22.56-13.61,3.49-24.19,14.61-26.9,28.52ZM59.84,83.35c-9.94-.67-18.6-5.77-24.1-13.31-12.14,3.7-17.12,10.67-17.12,20.36v24.18h23.91c2.84-6.75,8.69-13.26,20.01-17.31-1.74-4.27-2.71-8.93-2.71-13.82,0-.03,0-.06,0-.09Z"/><path class="e" d="M105.59,47.91c1.5-12.69,12.3-22.56,25.38-22.56,14.1,0,25.58,11.47,25.58,25.58,0,13.59-10.67,24.71-24.06,25.5-2.7-13.91-13.28-25.03-26.9-28.52ZM133.17,83.44c0,4.89,1.18,2.09-.56,6.36,11.32,4.05,25.11,18.02,27.95,24.77h13.83s0-24.18,0-24.18c0-9.69-4.98-16.66-17.12-20.36-5.5,7.53-14.16,12.64-24.1,13.31,0,.03,0,.06,0,.09Z"/><rect x="154.78" y="140.2" width="24" height="50.92" rx="6.71" ry="6.71" transform="translate(-68.29 166.46) rotate(-45)"/><circle class="g" cx="126.61" cy="124.29" r="37.24"/></g></svg>