<?xml version="1.0" encoding="UTF-8"?><svg xmlns="http://www.w3.org/2000/svg" viewBox="0 0 193 193"><defs><style>.e{fill:#ebebdf;}.f{fill:#afc3e3;}.g{fill:none;stroke:#000;stroke-miterlimit:10;stroke-width:12px;}</style></defs><g id="a"><path class="e" d="M59.76,13.79c77.4-30.96,150.42,41.96,119.46,119.45-8.39,20.89-24.99,37.58-45.97,45.97C55.84,210.18-17.18,137.16,13.78,59.76c8.39-20.89,25.09-37.58,45.97-45.97Z"/></g><g id="c"><path class="f" d="M51.1,61.06c0-16.96,13.8-30.76,30.76-30.76s30.76,13.8,30.76,30.76-13.8,30.76-30.76,30.76-30.76-13.8-30.76-30.76ZM31.53,134.86h100.66v-28.03c0-11.34-5.87-19.48-20.26-23.74-6.79,9.25-17.74,15.27-30.07,15.27s-23.28-6.02-30.07-15.27c-14.38,4.26-20.26,12.4-20.26,23.74v28.03Z"/><path class="f" d="M44.03,53.69c-14.08-.83-25.29-12.52-25.29-26.8S30.8,0,45.62,0c13.75,0,25.11,10.38,26.68,23.72-14.31,3.66-25.43,15.36-28.27,29.97ZM43.32,60.96c-10.45-.7-19.55-6.07-25.33-13.99C5.23,50.86,0,58.19,0,68.37v25.41h25.13c2.98-7.1,9.14-13.94,21.04-18.2-1.83-4.49-2.85-9.39-2.85-14.53,0-.03,0-.06,0-.1Z"/><path class="f" d="M91.41,23.72C92.99,10.38,104.34,0,118.09,0c14.82,0,26.88,12.06,26.88,26.88,0,14.29-11.21,25.97-25.29,26.8-2.84-14.62-13.96-26.31-28.27-29.97ZM120.4,61.06c0,5.14-1.02,10.04-2.85,14.53,11.9,4.26,18.06,11.1,21.04,18.2h25.13s0-25.41,0-25.41c0-10.18-5.23-17.51-17.99-21.4-5.78,7.92-14.89,13.29-25.33,13.99,0,.03,0,.06,0,.1Z"/><rect x="151.53" y="136.2" width="27.72" height="58.82" rx="7.75" ry="7.75" transform="translate(-68.66 165.46) rotate(-45)"/><circle class="g" cx="118.99" cy="117.82" r="43.01"/></g></svg>