<?xml version="1.0" encoding="UTF-8"?><svg xmlns="http://www.w3.org/2000/svg" viewBox="0 0 193 193"><defs><style>.e{fill:#ebebdf;}.f{fill:#fff;}.g{fill:#afc3e3;}</style></defs><g id="a"><path class="e" d="M59.76,13.79c77.4-30.96,150.42,41.96,119.46,119.45-8.39,20.89-24.99,37.58-45.97,45.97C55.84,210.18-17.18,137.16,13.78,59.76c8.39-20.89,25.09-37.58,45.97-45.97Z"/></g><g id="b"><polygon class="g" points="24.8 36.15 32.03 51.98 49.24 54.37 36.31 66.06 39.59 83.33 24.41 74.8 9.06 83.01 12.43 65.81 0 53.87 17.26 51.83 24.8 36.15"/><polygon class="g" points="61.7 0 68.92 15.83 86.13 18.22 73.21 29.91 76.48 47.18 61.3 38.65 45.95 46.87 49.33 29.67 36.9 17.72 54.15 15.68 61.7 0"/><polygon class="g" points="100.03 39.13 107.26 54.96 124.47 57.35 111.54 69.03 114.81 86.3 99.64 77.78 84.29 85.99 87.66 68.79 75.23 56.85 92.48 54.81 100.03 39.13"/></g><g id="c"><path d="M142.39,135.54h0s14.86-12.54,25.24-42.76c10.38-30.22,1.29-58.84,1.29-58.84,0,0-29.95,3.27-53.34,25.05-23.39,21.78-28.8,40.45-28.8,40.45l-3.85.09c-10.92.25-20.94,6.11-26.52,15.5l-14.76,24.29,35.91-7.35,1.36,8.4,29.27,19.01,8.22-2.18,7.92,35.81,13.94-20.24c7.69-10.87,9.24-24.93,4.11-37.22ZM96.76,188.42l-6.07-6.77-25.03,9.4-1.6-26.69-8.65-2.8c9.06-12.27,22.15-15.14,22.15-15.14l12.02,7.8,12.02,7.8s2.7,13.13-4.82,26.39Z"/><circle class="f" cx="138.77" cy="80.36" r="15.1"/></g></svg>