<?xml version="1.0" encoding="UTF-8"?><svg id="a" xmlns="http://www.w3.org/2000/svg" viewBox="0 0 193 193"><defs><style>.e{fill:#fff;}.f{fill:#afc3e3;}</style></defs><circle class="f" cx="96.5" cy="96.5" r="96.5"/><circle class="f" cx="96.5" cy="96.5" r="96.5"/><path d="M163.39,105.74l-11.27,2.75c-1.04,7.08-6.24,13.16-13.62,14.96-7.38,1.8-14.8-1.21-18.98-7.02l-11.33,2.76,13.45,55.18,55.18-13.45-13.45-55.18Z"/><path class="e" d="M101.7,35.1v11.94c6.25,2.85,10.6,9.14,10.6,16.46s-4.35,13.61-10.6,16.46v11.94h19.2v2.5c0,5.1,4.1,9.2,9.2,9.2s9.2-4.1,9.2-9.2v-2.5h19.2v-56.8h-56.8Z"/><path class="e" d="M94.3,54.4h-2.6v-19.3h-56.8v56.8h11.9c2.78-6.41,9.16-10.9,16.6-10.9s13.82,4.49,16.6,10.9h11.7v-19.1h2.6c5.1,0,9.2-4.1,9.2-9.2s-4.1-9.2-9.2-9.2Z"/><path class="e" d="M80.4,129.2c0-7.59,4.67-14.08,11.3-16.77v-10.83h-19.1v-2.6c0-5.1-4.1-9.2-9.2-9.2s-9.2,4.1-9.2,9.2v2.6h-19.3v56.8h56.8v-12.43c-6.63-2.69-11.3-9.18-11.3-16.77Z"/><path d="M123.63,154.02l-8.94,2.18c-4.95,1.21-9.91-1.8-11.12-6.76h0c-1.21-4.95,1.8-9.91,6.76-11.12l8.94-2.18,4.33,17.78h0l.02.1Z"/></svg>