<?xml version="1.0" encoding="UTF-8"?><svg id="b" xmlns="http://www.w3.org/2000/svg" viewBox="0 0 1000 1000"><defs><style>.e{fill:rgba(153,204,255,.55);}</style></defs><path class="e" d="M685.1,554.44h0s31.38-103.5-11.82-275.98C630.09,105.98,500.76,0,500.76,0c0,0-130.02,105.98-173.22,278.46-43.2,172.48-11.82,275.98-11.82,275.98l-17.7,12.06c-50.26,34.26-79.31,91.94-76.89,152.65l4.75,158.03,145.49-143.06,31.81,35.06h194.45l31.81-35.06,145.68,143.06,3.7-136.65c2.95-74.01-32.46-144.33-93.73-186.09ZM500.76,418.43c-61.11,0-110.65-49.46-110.65-110.48,0-61.02,49.54-110.48,110.65-110.48,61.11,0,110.65,49.46,110.65,110.48,0,61.02-49.54,110.48-110.65,110.48ZM617.15,909.75l-41.46-11.17-74.95,101.42-74.95-101.42-41.46,11.17c4.31-71.76,48.76-116.71,48.76-116.71h67.65s67.65,0,67.65,0c0,0,44.45,44.95,48.76,116.71Z"/></svg>