<?xml version="1.0" encoding="UTF-8"?><svg xmlns="http://www.w3.org/2000/svg" viewBox="0 0 193 193"><defs><style>.e{fill:#ebebdf;}.f{isolation:isolate;}.g{fill:#fff;}.h{fill:#afc3e3;}</style></defs><g id="a"><path class="e" d="M60.03,13.79c77.4-30.96,150.42,41.96,119.46,119.45-3.76,9.35-30.24,10.1-36.95,17.4-4.53,4.93,11.44,17.07,5.83,20.78-4.64,3.07-9.61,5.69-14.86,7.79C56.11,210.18-16.91,137.16,14.05,59.76c8.39-20.89,25.09-37.58,45.97-45.97Z"/></g><g id="d"><rect x=".26" y="30.32" width="115.33" height="78.67"/><polyline points="70.37 101.8 24.67 129.03 24.67 83.23"/><rect class="h" x="77.67" y="82.06" width="115.33" height="78.67"/><polyline class="h" points="105.27 153.54 150.98 180.76 150.98 134.96"/><path class="g" d="M106.84,116.1c7.68-5.83,16.43,2.82,10.5,10.5-7.68,5.83-16.43-2.82-10.5-10.5Z"/><path class="g" d="M153.32,116.1c7.68-5.83,16.43,2.82,10.5,10.5-7.68,5.83-16.43-2.82-10.5-10.5Z"/><path class="g" d="M130.08,116.1c7.68-5.83,16.43,2.82,10.5,10.5-7.68,5.83-16.43-2.82-10.5-10.5Z"/><g class="f"><g class="f"><path class="g" d="M71.05,55.41c0,2.33-.49,4.57-1.56,6.52-1.07,2.04-2.43,3.89-4.18,5.54-1.75,1.75-3.79,3.4-6.03,4.96-2.24,1.56-4.67,3.11-7.1,4.67l-4.86-7c1.75-1.36,3.4-2.53,5.06-3.7,1.56-1.17,3.01-2.24,4.18-3.4s2.14-2.24,2.92-3.4,1.07-2.33,1.07-3.7-.58-3.21-1.75-4.18c-1.17-.97-2.72-1.36-4.67-1.36s-3.79.29-5.35.78-3.11,1.17-4.57,2.04l-2.72-7.59c1.94-1.17,4.08-2.04,6.42-2.72,2.33-.68,4.86-.97,7.78-.97s4.08.29,6.03.88c1.85.58,3.5,1.36,4.86,2.53,1.36,1.17,2.53,2.53,3.31,4.18s1.17,3.6,1.17,5.83v.1ZM47.23,87.99c0-1.65.49-3.01,1.56-4.18,1.07-1.17,2.53-1.75,4.47-1.75s3.4.58,4.47,1.75c1.07,1.17,1.56,2.63,1.56,4.18s-.49,3.01-1.56,4.28c-1.07,1.17-2.53,1.85-4.47,1.85s-3.4-.58-4.47-1.85c-1.07-1.17-1.56-2.63-1.56-4.28Z"/></g></g></g></svg>