<?xml version="1.0" encoding="UTF-8"?><svg xmlns="http://www.w3.org/2000/svg" viewBox="0 0 193 193"><defs><style>.e{fill:#ebebdf;}.f{stroke:#fff;stroke-width:8px;}.f,.g{fill:none;stroke-miterlimit:10;}.h{fill:#afc3e3;fill-rule:evenodd;}.g{stroke:#eaeade;stroke-width:5px;}</style></defs><g id="a"><path class="e" d="M59.76,13.79c77.4-30.96,150.42,41.96,119.46,119.45-8.39,20.89-24.99,37.58-45.97,45.97C55.84,210.18-17.18,137.16,13.78,59.76c8.39-20.89,25.09-37.58,45.97-45.97Z"/></g><g id="d"><polygon class="h" points="132.2 163.43 19.93 163.43 19.93 16.95 109.05 16.95 132.2 40.21 132.2 163.43"/><polyline class="g" points="135.46 42.52 106.95 42.52 106.95 14.53"/><line class="f" x1="30.03" y1="71.14" x2="120.1" y2="71.14"/><line class="f" x1="30.03" y1="48.1" x2="80.85" y2="48.1"/><line class="f" x1="30.87" y1="92.82" x2="111.57" y2="92.82"/><path d="M191.87,112.75c0-19.5-18.3-35.1-42.7-32.9-18.4,1.7-31,13.9-33.1,28.9-1.1,7.4.9,14.4,5,20.3,8,11.5,10.6,24.3,10.6,37.6v.6h44.4v-1.6c0-12.3,1.2-24.7,9.4-35,4.1-5.2,6.5-11.3,6.5-17.9h-.1Z"/><path d="M154.17,192.65h-1.3c-5.1,0-9.5-2.9-11.1-7.1l-.8-2h25.6l-.6,1.6c-1.7,4.5-6.4,7.5-11.8,7.5h0Z"/><rect x="131.57" y="171.55" width="44.4" height="8"/><polyline class="f" points="135.27 114.15 153.57 133.95 172.07 113.95"/><line class="f" x1="153.67" y1="167.35" x2="153.67" y2="133.95"/></g></svg>