<?xml version="1.0" encoding="UTF-8"?><svg xmlns="http://www.w3.org/2000/svg" viewBox="0 0 193 193"><defs><style>.e{fill:none;stroke:#fff;stroke-miterlimit:10;stroke-width:12px;}.f{fill:#afc3e3;}</style></defs><g id="a"><circle class="f" cx="96.5" cy="96.5" r="96.5"/></g><g id="b"><circle class="e" cx="95.9" cy="97.2" r="68.7"/></g><g id="c"><path d="M125.9,123.4h0s17.09-14.42,29.04-49.2c11.95-34.77,1.49-67.7,1.49-67.7,0,0-34.46,3.76-61.36,28.82-26.91,25.06-33.13,46.54-33.13,46.54l-4.42.1c-12.56.29-24.09,7.03-30.51,17.83l-16.98,27.94,41.31-8.45,1.56,9.66,33.68,21.87,9.46-2.5,9.12,41.2,16.03-23.29c8.85-12.51,10.63-28.68,4.73-42.82ZM112.28,74.48c-8.05-5.23-10.34-15.99-5.11-24.04,5.23-8.05,15.99-10.34,24.04-5.11,8.05,5.23,10.34,15.99,5.11,24.04-5.23,8.05-15.99,10.34-24.04,5.11ZM73.4,184.23l-6.99-7.79-28.8,10.81-1.84-30.71-9.96-3.22c10.42-14.12,25.48-17.42,25.48-17.42l13.83,8.98,13.83,8.98s3.11,15.1-5.55,30.36Z"/></g></svg>